<svg version="1.1" id="Layer_1" xmlns="http://www.w3.org/2000/svg" xmlns:xlink="http://www.w3.org/1999/xlink" x="0px" y="0px"
	 width="100%" viewBox="310 310 410 410" enable-background="new 0 0 1024 1024" xml:space="preserve">
<circle cx="515" cy="515" r="175" fill="none"/>
<path fill="none" opacity="1.000000" stroke="#000000" stroke-linecap="round" stroke-linejoin="round" stroke-width="7.000000"
	d="
M469.000000,644.000000 
	C471.403656,642.097290 474.251862,642.643799 476.998505,642.475464 
	C482.503296,642.137878 488.142242,643.544434 494.000000,641.123474 
	C494.000000,639.500549 494.000000,637.750305 494.000000,636.000000 
	C494.000000,596.666687 494.001190,557.333313 493.998840,518.000000 
	C493.998444,511.553070 493.446899,511.003052 487.000000,511.001190 
	C473.666656,510.997284 460.331512,511.122925 447.001129,510.923523 
	C443.105011,510.865234 441.615387,512.096863 441.946136,516.004578 
	C442.212219,519.148743 442.123230,522.339355 441.967712,525.498413 
	C441.787598,529.157349 443.092865,530.713989 447.002655,530.574951 
	C454.326752,530.314514 461.669678,530.624084 468.998657,530.444763 
	C472.388977,530.361877 474.041809,531.364624 474.033813,535.000061 
	C473.972351,562.999939 473.972351,591.000061 474.040497,618.999878 
	C474.047729,621.975220 472.980011,623.131836 469.998779,623.040039 
	C465.170013,622.891296 460.332245,622.943481 455.500702,623.036804 
	C454.175385,623.062439 452.828430,622.609802 451.478821,623.466675 
	C448.219086,625.536316 445.810913,623.855225 443.484924,621.514954 
	C432.518738,610.481384 421.499969,599.500061 410.499969,588.500000 
	C404.833313,582.833313 399.042908,577.283447 393.544250,571.458252 
	C389.976929,567.679199 384.236694,566.014771 383.202881,559.547485 
	C382.864502,557.430664 378.528046,556.768311 376.429382,554.567322 
	C369.111908,546.893311 361.504669,539.495300 353.996582,532.003418 
	C352.212463,530.223206 350.630310,528.183472 348.002777,527.489502 
	C345.426697,526.809021 345.443390,524.195435 345.130768,522.476196 
	C343.990112,516.203064 344.205139,509.835205 344.994476,503.499298 
	C345.482361,499.583099 348.981842,498.579742 351.422546,496.412781 
	C356.349091,492.038818 360.833405,487.166718 365.500031,482.500031 
	C369.500000,478.500000 373.495575,474.495575 377.502625,470.502625 
	C378.761353,469.248322 379.868683,467.696991 382.000000,468.000000 
"/>
<path fill="none" opacity="1.000000" stroke="#000000" stroke-linecap="round" stroke-linejoin="round" stroke-width="7.000000"
	d="
M513.000000,346.000000 
	C513.000000,457.500000 513.000000,569.000000 513.000000,680.500000 
"/>
<path fill="none" opacity="1.000000" stroke="#000000" stroke-linecap="round" stroke-linejoin="round" stroke-width="7.000000"
	d="
M576.000000,402.500000 
	C572.315613,404.546509 568.451843,403.695160 564.497864,403.631622 
	C552.480347,403.438538 552.938171,401.511292 552.976624,413.500061 
	C553.054688,437.833160 552.994751,462.166656 553.004028,486.500000 
	C553.006104,491.971130 553.029419,491.992157 558.500000,491.996063 
	C574.333313,492.007294 590.167908,492.106903 605.999146,491.923859 
	C609.893982,491.878845 611.174255,493.102081 611.075989,497.001923 
	C610.840820,506.329346 611.024109,515.666748 610.990540,524.999939 
	C610.971924,530.195618 610.651245,530.492920 605.500000,530.496277 
	C589.666687,530.506531 573.832031,530.608154 558.000916,530.423035 
	C554.100098,530.377441 552.947449,531.847168 552.957642,535.500122 
	C553.035156,563.166565 553.044983,590.833496 552.942688,618.499817 
	C552.929993,621.933899 554.038330,623.223206 557.502686,623.055786 
	C562.158508,622.830688 566.833313,623.000000 571.500000,623.000000 
	C572.666687,623.000000 574.200439,622.517944 574.938782,623.080383 
	C578.929138,626.119629 581.398682,623.624573 584.007935,621.007935 
	C596.490234,608.490234 609.000000,596.000000 621.500000,583.500000 
	C625.833313,579.166687 629.693542,574.170837 634.612549,570.657593 
	C641.715637,565.584534 646.020325,558.065918 652.400574,552.388245 
	C659.338806,546.214111 665.468506,539.135498 672.019104,532.518921 
	C673.991211,530.526917 675.640198,527.903259 679.000000,528.000000 
"/>
<path fill="none" opacity="1.000000" stroke="#000000" stroke-linecap="round" stroke-linejoin="round" stroke-width="7.000000"
	d="
M643.500000,617.500000 
	C646.187439,616.916626 647.940613,615.235046 649.537842,613.027344 
	C664.177368,592.791992 673.847595,570.323364 678.779236,545.955322 
	C679.935242,540.243530 682.912842,534.108215 679.543640,527.976013 
	C679.371216,527.662292 679.769958,526.967163 680.009644,526.505005 
	C682.991882,520.756287 681.810669,514.549866 681.986755,508.499603 
	C682.107483,504.349640 681.106689,500.916260 676.528137,499.414154 
	C675.178650,498.971466 674.096680,497.570312 673.010986,496.488953 
	C663.492004,487.008026 654.002625,477.497406 644.498352,468.001648 
	C641.656799,465.162537 638.975037,462.355408 641.935181,457.956390 
	C642.398376,457.268066 642.000000,456.000000 642.000000,455.000000 
	C642.000000,441.000000 641.278687,426.948151 642.279724,413.020111 
	C642.849121,405.096771 639.379211,400.297821 634.490662,395.509521 
	C631.206482,392.292694 627.961060,389.016022 624.459595,386.047638 
	C621.653503,383.668762 618.402466,382.674255 614.485291,383.422974 
	C607.558838,384.746857 600.499695,383.847931 593.499512,383.971893 
	C586.335083,384.098755 579.166443,383.969025 572.000183,384.021118 
	C570.133118,384.034698 568.211365,383.580444 566.451355,384.936920 
	C565.746948,385.479858 564.754150,385.619843 563.458984,385.102692 
	C554.648071,381.584106 545.483154,385.043793 536.488403,384.111633 
	C534.515015,383.907135 533.038513,385.685791 533.003174,388.000061 
	C532.985352,389.166443 533.000000,390.333344 533.000000,391.500000 
	C533.000000,429.166656 533.000000,466.833344 533.000000,504.500000 
	C533.000000,548.333313 533.007568,592.166687 532.992126,636.000000 
	C532.989685,642.821289 532.797668,641.536377 539.515198,642.379028 
	C544.437744,642.996399 549.500122,642.521545 554.499939,642.488037 
	C556.196045,642.476685 557.612793,643.161621 559.000000,644.000000 
"/>
<path fill="none" opacity="1.000000" stroke="#000000" stroke-linecap="round" stroke-linejoin="round" stroke-width="6.000000"
	d="
M679.500000,500.000000 
	C682.986572,495.451904 680.530884,490.403412 679.746460,486.045654 
	C677.505127,473.594513 674.509338,461.243530 669.521240,449.490967 
	C663.793945,435.997009 656.717163,423.292725 648.023254,411.482880 
	C646.841187,409.877106 645.338196,408.992706 643.500000,408.500000 
"/>
<path fill="none" opacity="1.000000" stroke="#000000" stroke-linecap="round" stroke-linejoin="round" stroke-width="7.000000"
	d="
M382.500000,408.500000 
	C377.873932,409.540588 376.342255,413.761810 374.048035,417.033691 
	C361.578156,434.817413 353.303741,454.529144 348.081879,475.520355 
	C346.705811,481.052002 346.328400,486.832611 345.502472,492.500366 
	C345.181976,494.699463 346.261719,496.559570 347.000000,498.500000 
"/>
<path fill="none" opacity="1.000000" stroke="#000000" stroke-linecap="round" stroke-linejoin="round" stroke-width="7.000000"
	d="
M617.000000,382.500000 
	C614.665039,376.675690 609.255981,374.098267 604.465454,371.054413 
	C586.477661,359.625092 567.130737,351.646942 546.032593,347.820435 
	C541.204590,346.944824 536.074341,344.995758 531.526062,345.342010 
	C521.940430,346.071655 512.485657,343.374817 503.009735,345.054962 
	C500.541199,345.492645 497.567932,345.863251 497.506744,349.500122 
	C497.471680,351.584320 495.619385,352.312347 494.463959,353.463837 
	C487.034424,360.867889 479.485809,368.152222 472.010040,375.510193 
	C470.159454,377.331573 467.891418,378.946014 468.000000,382.000000 
"/>
<path fill="none" opacity="1.000000" stroke="#000000" stroke-linecap="round" stroke-linejoin="round" stroke-width="6.000000"
	d="
M409.000000,644.500000 
	C410.310425,647.303162 412.365662,649.281372 414.959412,651.059204 
	C435.798279,665.343445 458.461792,674.958496 483.462158,679.221924 
	C486.591888,679.755615 489.969818,679.150513 493.068207,680.877625 
	C494.910614,681.904602 497.107086,680.428284 499.000000,679.500000 
"/>
<path fill="none" opacity="1.000000" stroke="#000000" stroke-linecap="round" stroke-linejoin="round" stroke-width="6.000000"
	d="
M346.500000,528.000000 
	C343.471161,532.052185 345.546844,536.563904 346.199524,540.466614 
	C350.507904,566.228760 360.327881,589.894287 375.078461,611.446289 
	C376.848602,614.032654 378.676636,617.154175 382.500000,617.500000 
"/>
<path fill="none" opacity="1.000000" stroke="#000000" stroke-linecap="round" stroke-linejoin="round" stroke-width="7.000000"
	d="
M497.500000,346.500000 
	C490.496490,344.674255 483.636505,346.698395 477.037384,348.167847 
	C454.381348,353.212860 433.209351,361.906525 414.473541,375.964752 
	C412.085907,377.756317 409.913483,379.554993 409.000000,382.500000 
"/>
<path fill="none" opacity="1.000000" stroke="#000000" stroke-linecap="round" stroke-linejoin="round" stroke-width="6.000000"
	d="
M617.000000,644.500000 
	C615.695679,646.493408 614.709290,648.532532 612.560547,650.083801 
	C596.960388,661.346558 579.938049,669.715942 561.466309,674.879517 
	C552.996216,677.247314 544.467896,679.688232 535.511597,680.202271 
	C533.133484,680.338684 531.500977,679.327637 529.500000,679.000000 
"/>
<path fill="none" opacity="1.000000" stroke="#000000" stroke-linecap="round" stroke-linejoin="round" stroke-width="7.000000"
	d="
M459.000000,386.000000 
	C458.899017,388.740509 457.379669,390.661896 455.518219,392.518280 
	C434.322845,413.656128 413.161438,434.828156 392.006256,456.006256 
	C389.174438,458.841156 384.620209,459.952728 383.499329,464.499817 
	C383.170349,465.834259 382.111389,467.625092 382.618988,468.424438 
	C385.565491,473.064301 384.432037,478.362549 384.237976,482.989014 
	C383.286072,505.679901 384.978027,528.332703 384.540466,551.000793 
	C384.489410,553.644470 384.217377,556.143494 383.000000,558.500000 
"/>
<path fill="none" opacity="1.000000" stroke="#000000" stroke-linecap="round" stroke-linejoin="round" stroke-width="7.000000"
	d="
M609.500000,511.000000 
	C586.500000,511.000000 563.500000,510.987640 540.500061,511.021698 
	C538.499817,511.024658 536.500000,511.333313 534.500000,511.500000 
"/>
<path fill="none" opacity="1.000000" stroke="#000000" stroke-linecap="round" stroke-linejoin="round" stroke-width="7.000000"
	d="
M565.000000,386.000000 
	C564.844971,387.162781 565.298157,388.101929 565.991821,389.006256 
	C569.383240,393.428040 575.313965,395.797668 576.500000,402.000000 
	C580.142334,402.853912 582.511475,405.483337 585.010864,407.989166 
	C601.489807,424.510193 617.986328,441.013702 634.522522,457.477386 
	C636.061890,459.010010 637.230957,461.303711 640.000000,461.000000 
"/>
<path fill="none" opacity="1.000000" stroke="#000000" stroke-linecap="round" stroke-linejoin="round" stroke-width="7.000000"
	d="
M460.500000,641.000000 
	C457.370605,642.686279 454.026978,643.001221 450.501038,643.060730 
	C439.311096,643.249634 428.165222,642.381958 416.999786,642.006042 
	C415.667969,641.961182 413.830688,641.432617 413.083679,642.094482 
	C409.013672,645.700195 405.330261,643.217407 402.608154,640.874329 
	C395.723969,634.948608 388.101685,629.572083 384.011719,620.994446 
	C383.416321,619.745667 382.571838,618.472168 383.015167,617.004578 
	C385.911102,607.418396 383.998383,597.685730 384.112427,588.001343 
	C384.194763,581.005859 382.508820,573.822083 385.500000,567.000000 
"/>
<path fill="none" opacity="1.000000" stroke="#000000" stroke-linecap="round" stroke-linejoin="round" stroke-width="7.000000"
	d="
M494.000000,384.000000 
	C488.000000,384.000000 481.999573,383.955902 476.000122,384.013153 
	C470.629974,384.064392 465.250427,381.720276 459.846191,385.265533 
	C458.143433,386.382599 454.891571,383.857635 451.998352,383.910919 
	C440.335663,384.125793 428.666351,384.044617 417.000275,383.962494 
	C414.656921,383.946014 412.372589,384.105499 409.931702,383.180145 
	C407.547852,382.276459 404.486267,383.507690 402.579285,385.095215 
	C396.320740,390.305145 390.228363,395.782196 385.548828,402.533844 
	C383.730927,405.156769 382.963715,407.985352 383.818939,411.543518 
	C384.652130,415.009918 384.000000,418.833344 384.000000,422.500000 
	C384.000000,432.333344 384.057159,442.167206 383.960419,451.999603 
	C383.935760,454.504517 384.304565,456.815674 385.500000,459.000000 
"/>
<path fill="none" opacity="1.000000" stroke="#000000" stroke-linecap="round" stroke-linejoin="round" stroke-width="7.000000"
	d="
M640.500000,568.000000 
	C641.428284,569.892944 642.065125,571.783081 642.048340,574.000366 
	C641.949890,586.999634 641.089722,600.087646 642.329773,612.968262 
	C643.116211,621.136475 639.563049,625.789917 634.488831,630.487976 
	C629.805359,634.824219 626.123230,640.366150 619.973816,642.937378 
	C618.808655,643.424561 617.756470,644.601074 615.957397,643.574646 
	C611.393372,640.970398 606.420410,642.196106 601.496338,642.419983 
	C591.842041,642.858948 582.165466,642.787170 572.501099,643.041565 
	C570.714050,643.088562 569.575500,641.773560 568.000000,641.500000 
"/>
<path fill="none" opacity="1.000000" stroke="#000000" stroke-linecap="round" stroke-linejoin="round" stroke-width="6.000000"
	d="
M526.000000,347.000000 
	C526.141479,350.206665 528.494568,352.009552 530.508484,353.991364 
	C538.320862,361.679291 546.181702,369.318115 553.986084,377.014099 
	C555.389709,378.398193 557.322144,379.540070 557.000000,382.000000 
"/>
<path fill="none" opacity="1.000000" stroke="#000000" stroke-linecap="round" stroke-linejoin="round" stroke-width="7.000000"
	d="
M449.000000,625.000000 
	C448.899323,627.133667 450.103363,628.598022 451.492981,630.006897 
	C454.736481,633.295349 459.240814,635.498413 460.530548,640.492126 
	C460.632111,640.885254 461.127014,641.401733 461.505798,641.465637 
	C470.305695,642.950684 472.449890,651.881104 478.362335,656.669983 
	C485.284393,662.276489 491.831024,668.650146 497.285919,675.666443 
	C501.509796,681.099365 505.551086,683.298218 512.024414,681.070923 
	C513.016296,680.729614 514.353210,681.247925 515.496765,681.514038 
	C522.171509,683.066833 526.194641,681.134827 530.588806,675.570129 
	C534.151611,671.058228 538.465271,667.132568 542.509583,663.009399 
	C546.800598,658.634521 551.192993,654.359131 555.483765,649.984070 
	C556.748962,648.693970 558.370544,647.688843 558.591858,645.509338 
	C558.683899,644.602722 559.279358,643.082947 560.501343,643.050110 
	C569.503174,642.808167 569.940979,632.591309 576.461853,629.421509 
	C577.951416,628.697510 577.999451,626.666504 578.000000,625.000000 
"/>

</svg>